# Blender v2.78 (sub 0) OBJ File: 'chicken.blend'
# www.blender.org
mtllib chicken.mtl
o Chicken_Cube
v -0.111679 1.209106 -0.197161
v 0.229853 1.151855 -0.271968
v -0.257117 0.835821 -0.221059
v 0.249186 -0.164415 -0.891641
v 0.427141 0.401874 -0.543959
v 1.746600 0.190656 -0.437836
v 1.344831 -0.482644 -0.512624
v 1.388553 -0.846237 -0.601929
v 1.213880 -1.117803 -0.536290
v 0.299486 -1.097079 -0.794331
v -0.317367 -0.420166 -0.399757
v 0.558501 0.069219 -0.739160
v 1.215738 -0.057768 -0.640953
v 0.055646 -0.242807 -0.781921
v 0.171599 -0.686697 -0.945830
v 0.921187 -1.007825 -0.953838
v 1.166510 -0.679321 -0.943220
v 0.529458 -0.546634 -1.069919
v -0.101140 1.392487 -0.106002
v -0.181670 1.280482 -0.141297
v -0.266917 1.125159 -0.098560
v -0.282662 1.037901 -0.061386
v -0.367568 1.104293 -0.061386
v -0.358084 1.231387 -0.101613
v -0.282257 1.274449 -0.042748
v -0.319618 1.327043 -0.031487
v -0.287239 1.336409 -0.049618
v -0.287389 1.411309 -0.012019
v -0.279802 1.432175 -0.019343
v -0.282996 1.470114 -0.012019
v -0.272214 1.483392 -0.018950
v -0.268420 1.527021 -0.012019
v -0.236173 1.534609 -0.024839
v -0.236446 1.564982 -0.012019
v -0.180521 1.572547 -0.019406
v -0.129869 1.562878 -0.016438
v 0.007419 1.372326 -0.147659
v 0.157855 1.308786 -0.186596
v -0.016636 0.150251 -0.502852
v -0.121591 -0.860308 -0.591992
v 1.409544 -0.210593 -0.299558
v 0.756352 -1.302448 -0.410762
v 0.746129 -1.300172 -0.538479
v 0.678217 -1.307480 -0.506357
v 0.673558 -1.309273 -0.427010
v 0.804692 -1.298745 -0.473882
v 0.753519 -1.634680 -0.412080
v 0.744475 -1.627476 -0.507456
v 0.684396 -1.630532 -0.496649
v 0.681463 -1.631715 -0.426222
v 0.796283 -1.626108 -0.467920
v 0.770732 -1.792426 -0.430077
v 0.768896 -1.808325 -0.532729
v 0.662048 -1.787907 -0.522070
v 0.663873 -1.786515 -0.413981
v 0.806642 -1.760333 -0.469709
v 0.634669 -1.886260 -0.203538
v 0.589732 -1.911545 -0.726571
v 0.332025 -1.898644 -0.489998
v 0.585990 -1.886032 -0.219212
v 1.040039 -1.837746 -0.480529
v -0.180186 1.380013 -0.105563
v 1.011011 -1.849989 -0.507471
v 0.779284 -1.811711 -0.409603
v 1.009195 -1.851432 -0.444986
v -0.195065 1.412620 -0.063902
v -0.240933 1.391577 -0.041084
v 0.612385 -1.748424 -0.461692
v 0.307339 -1.896725 -0.460997
v 0.722564 -1.761336 -0.539349
v 0.554151 -1.891327 -0.738189
v 0.554798 -1.906749 -0.695093
v 0.332929 -1.900901 -0.440426
v 0.717297 -1.748365 -0.384816
v 0.604765 -1.872033 -0.190761
v -0.228131 1.335542 -0.092709
v -0.208491 1.340766 -0.113475
v -0.249071 1.355013 -0.056956
v -0.231574 1.284012 -0.104129
v -0.190333 1.369794 -0.096265
v -0.197952 1.386492 -0.074931
v -0.221441 1.375716 -0.063246
v -0.221108 1.347021 -0.091580
v -0.204828 1.349696 -0.102206
v -0.233714 1.356992 -0.071374
v 1.287731 0.198836 -0.273214
v 1.183621 -0.685939 -0.859387
v 0.321511 -1.111624 -0.675279
v 0.898053 -1.037356 -0.845012
v -0.173471 -0.806742 -0.423568
v 1.031008 -0.987706 -0.879905
v 0.215716 -1.076342 -0.667822
v 0.404987 -1.104097 -0.700541
v 1.171295 -0.681172 -0.919775
v 0.780762 -0.350759 -0.898044
v 1.167519 -0.666579 -0.937024
v 0.387542 -0.059912 -0.823437
v -0.111679 1.209106 0.197161
v -0.251660 1.328479 0.000000
v 0.072804 1.464617 0.000000
v 0.229853 1.151855 0.271968
v -0.257117 0.835821 0.221059
v -0.510992 0.039312 0.000000
v 0.249186 -0.164415 0.891641
v 0.427141 0.401874 0.543959
v 1.746600 0.190656 0.437836
v 1.344831 -0.482644 0.512624
v 1.388553 -0.846237 0.601929
v 1.213880 -1.117803 0.536290
v 0.299486 -1.097079 0.794331
v -0.317367 -0.420166 0.399757
v 0.558501 0.069219 0.739160
v 1.215738 -0.057768 0.640953
v 0.055646 -0.242807 0.781921
v 0.171599 -0.686697 0.945830
v 0.921187 -1.007825 0.953838
v 1.166510 -0.679321 0.943220
v 0.371569 1.122857 0.000000
v 0.529458 -0.546634 1.069919
v -0.355723 0.896094 0.000000
v -0.090600 1.513139 0.000000
v -0.300514 1.073212 0.000000
v -0.300514 1.045814 0.000000
v -0.248497 1.401298 0.000000
v -0.101140 1.392487 0.106002
v -0.181670 1.280482 0.141297
v -0.266917 1.125159 0.098560
v -0.282662 1.037901 0.061386
v -0.367568 1.104293 0.061386
v -0.358084 1.231387 0.101613
v -0.282257 1.274449 0.042748
v -0.288943 1.004237 0.000000
v -0.407492 1.085740 0.000000
v -0.390461 1.210725 0.000000
v -0.290744 1.275045 0.000000
v -0.319618 1.327043 0.031487
v -0.383564 1.320685 0.000000
v -0.329964 1.376805 0.000000
v -0.151731 1.473115 0.000000
v -0.287239 1.336409 0.049618
v -0.329208 1.315162 0.000000
v -0.287389 1.411309 0.012019
v -0.279802 1.432175 0.019343
v -0.282996 1.470114 0.012019
v -0.272214 1.483392 0.018950
v -0.268420 1.527021 0.012019
v -0.236173 1.534609 0.024839
v -0.236446 1.564982 0.012019
v -0.180521 1.572547 0.019406
v -0.129869 1.562878 0.016438
v -0.212584 1.426808 0.000000
v 0.007419 1.372326 0.147659
v 0.157855 1.308786 0.186596
v -0.016636 0.150251 0.502852
v 0.691185 0.525788 0.000000
v 1.852808 0.437260 0.000000
v 1.375102 -0.888249 0.000000
v 0.251261 1.321330 0.000000
v 1.461317 -0.579534 0.000000
v 0.513964 -1.031432 0.000000
v 1.257849 -1.155858 0.000000
v -0.395825 -0.478824 0.000000
v 0.025228 -1.016444 0.000000
v -0.286444 -0.763094 0.000000
v -0.121591 -0.860308 0.591992
v 1.489839 -0.184703 0.000000
v 1.409544 -0.210593 0.299558
v 0.756352 -1.302448 0.410762
v 0.746129 -1.300172 0.538479
v 0.678217 -1.307480 0.506357
v 0.673558 -1.309273 0.427010
v 0.804692 -1.298745 0.473882
v 0.753519 -1.634680 0.412080
v 0.744475 -1.627476 0.507456
v 0.684396 -1.630532 0.496649
v 0.681463 -1.631715 0.426222
v 0.796283 -1.626108 0.467920
v 0.770732 -1.792426 0.430077
v 0.768896 -1.808325 0.532729
v 0.662048 -1.787907 0.522070
v 0.663873 -1.786515 0.413981
v 0.806642 -1.760333 0.469709
v 0.634669 -1.886260 0.203538
v 0.589732 -1.911545 0.726571
v 0.332025 -1.898644 0.489998
v 0.585990 -1.886032 0.219212
v 1.040039 -1.837746 0.480529
v -0.180186 1.380013 0.105563
v 1.011011 -1.849989 0.507471
v 0.779284 -1.811711 0.409603
v 1.009195 -1.851432 0.444986
v -0.195065 1.412620 0.063902
v -0.240933 1.391577 0.041084
v 0.612385 -1.748424 0.461692
v 0.307339 -1.896725 0.460997
v 0.722564 -1.761336 0.539349
v 0.554151 -1.891327 0.738189
v 0.554798 -1.906749 0.695093
v 0.332929 -1.900901 0.440426
v 0.717297 -1.748365 0.384816
v 0.604765 -1.872033 0.190761
v -0.228131 1.335542 0.092709
v -0.208491 1.340766 0.113475
v -0.249071 1.355013 0.056956
v -0.290264 1.402704 0.000000
v -0.283263 1.428611 0.000000
v -0.302507 1.456004 0.000000
v -0.286542 1.486918 0.000000
v -0.273246 1.527940 0.000000
v -0.246688 1.544489 0.000000
v -0.238842 1.560323 0.000000
v -0.184607 1.596446 0.000000
v -0.123034 1.579591 0.000000
v -0.231574 1.284012 0.104129
v -0.190333 1.369794 0.096265
v -0.197952 1.386492 0.074931
v -0.221441 1.375716 0.063246
v -0.221108 1.347021 0.091580
v -0.204828 1.349696 0.102206
v -0.233714 1.356992 0.071374
v 1.287731 0.198836 0.273214
v 1.274907 0.240792 0.000000
v 1.183621 -0.685939 0.859387
v 0.321511 -1.111624 0.675279
v 0.898053 -1.037356 0.845012
v -0.173471 -0.806742 0.423568
v 1.031008 -0.987706 0.879905
v 0.215716 -1.076342 0.667822
v 0.404987 -1.104097 0.700541
v 1.171295 -0.681172 0.919775
v 0.780762 -0.350759 0.898044
v 1.167519 -0.666579 0.937024
v 0.387542 -0.059912 0.823437
vn -0.8095 0.0352 0.5861
vn 0.9799 0.0189 -0.1985
vn -0.5320 0.5787 -0.6181
vn -0.8095 0.0352 -0.5861
vn 0.9799 0.0189 0.1985
vn -0.5320 0.5787 0.6181
vn -0.2838 -0.2700 -0.9201
vn -0.9165 0.0328 -0.3986
vn -0.5119 -0.7041 -0.4921
vn -0.2638 -0.3374 -0.9037
vn 0.4399 0.3538 -0.8254
vn -0.5151 0.8567 -0.0267
vn 0.1587 -0.0159 -0.9872
vn 0.0039 -0.1169 -0.9931
vn 0.1139 -0.0249 -0.9932
vn 0.1459 -0.1917 -0.9705
vn 0.2187 -0.3491 -0.9112
vn 0.1380 -0.2108 -0.9677
vn -0.0272 -0.8097 -0.5862
vn -0.9550 0.2850 -0.0823
vn -0.7414 -0.1823 -0.6458
vn -0.6923 0.3174 -0.6480
vn -0.8180 0.2090 -0.5359
vn -0.4214 0.8078 -0.4121
vn -0.9035 0.2455 -0.3513
vn -0.3411 0.7687 -0.5410
vn 0.1722 0.6453 -0.7443
vn 0.6950 0.3392 -0.6339
vn 0.0222 -0.1853 -0.9824
vn -0.2838 -0.2700 0.9201
vn -0.9165 0.0328 0.3986
vn -0.5119 -0.7041 0.4921
vn -0.2638 -0.3374 0.9037
vn 0.4399 0.3538 0.8254
vn -0.5151 0.8567 0.0267
vn 0.1587 -0.0159 0.9872
vn 0.0039 -0.1169 0.9931
vn 0.1139 -0.0249 0.9932
vn 0.1459 -0.1917 0.9705
vn 0.2187 -0.3491 0.9112
vn 0.1380 -0.2108 0.9677
vn -0.0272 -0.8097 0.5862
vn -0.9550 0.2850 0.0823
vn -0.7414 -0.1823 0.6458
vn -0.6923 0.3174 0.6480
vn -0.8180 0.2090 0.5359
vn -0.4214 0.8078 0.4121
vn -0.9035 0.2455 0.3513
vn -0.3411 0.7687 0.5410
vn 0.1722 0.6453 0.7443
vn 0.6950 0.3392 0.6339
vn 0.0222 -0.1853 0.9824
vn -0.4348 0.4152 -0.7991
vn -0.0937 -0.9217 -0.3763
vn -0.5331 0.3705 -0.7606
vn -0.4543 -0.1342 -0.8807
vn -0.7604 -0.5885 -0.2746
vn -0.2008 0.6679 -0.7167
vn -0.4348 0.4152 0.7991
vn -0.0937 -0.9217 0.3763
vn -0.5331 0.3705 0.7606
vn -0.4543 -0.1342 0.8807
vn -0.7604 -0.5885 0.2746
vn -0.2008 0.6679 0.7167
vn 0.7944 -0.0093 0.6074
vn -0.3129 -0.0615 -0.9478
vn -0.1925 -0.0023 0.9813
vn -0.1736 0.2816 0.9437
vn 0.6860 -0.0515 -0.7257
vn 0.7123 0.1377 -0.6883
vn 0.7654 0.0287 0.6429
vn 0.3085 0.1724 -0.9355
vn 0.6374 -0.0183 0.7703
vn -0.6833 0.2100 -0.6993
vn -0.6173 0.7839 -0.0669
vn 0.6464 0.4624 0.6069
vn -0.2901 0.6319 0.7187
vn -0.1703 -0.9852 -0.0178
vn 0.2392 0.7258 0.6450
vn -0.3267 0.7242 -0.6073
vn 0.0014 -0.8560 0.5170
vn -0.6424 0.7569 0.1199
vn -0.6197 0.1316 0.7738
vn -0.8566 0.5152 -0.0270
vn -0.5438 0.1274 0.8295
vn -0.1727 -0.8338 0.5243
vn -0.1273 -0.9909 -0.0428
vn -0.3483 0.1975 -0.9163
vn -0.1837 0.2562 -0.9490
vn -0.3935 -0.8674 -0.3045
vn -0.9984 -0.0226 -0.0511
vn 0.3962 -0.9181 -0.0097
vn -0.0855 -0.8957 -0.4364
vn 0.3223 -0.9466 -0.0108
vn 0.2041 0.7367 -0.6447
vn 0.5248 0.4423 -0.7272
vn -0.2010 -0.9796 0.0022
vn 0.7944 -0.0093 -0.6074
vn -0.3129 -0.0615 0.9478
vn -0.1925 -0.0023 -0.9813
vn -0.1736 0.2816 -0.9437
vn 0.6860 -0.0515 0.7257
vn 0.7123 0.1377 0.6883
vn 0.7654 0.0287 -0.6429
vn 0.3085 0.1724 0.9355
vn 0.6374 -0.0183 -0.7703
vn -0.6833 0.2100 0.6993
vn -0.6173 0.7839 0.0669
vn 0.6464 0.4624 -0.6069
vn -0.2901 0.6319 -0.7187
vn -0.1703 -0.9852 0.0178
vn 0.2392 0.7258 -0.6450
vn -0.3267 0.7242 0.6073
vn 0.0014 -0.8560 -0.5170
vn -0.6424 0.7569 -0.1199
vn -0.6197 0.1316 -0.7738
vn -0.8566 0.5152 0.0270
vn -0.5438 0.1274 -0.8295
vn -0.1727 -0.8338 -0.5243
vn -0.1273 -0.9909 0.0428
vn -0.3483 0.1975 0.9163
vn -0.1837 0.2562 0.9490
vn -0.3935 -0.8674 0.3045
vn -0.9984 -0.0226 0.0511
vn 0.3962 -0.9181 0.0097
vn -0.0855 -0.8957 0.4364
vn 0.3223 -0.9466 0.0108
vn 0.2041 0.7367 0.6447
vn 0.5248 0.4423 0.7272
vn -0.2010 -0.9796 -0.0022
vn 0.8865 0.1357 -0.4425
vn 0.2448 0.4083 -0.8794
vn 0.6545 -0.4230 -0.6266
vn 0.2952 -0.8255 -0.4810
vn -0.1109 -0.7406 -0.6627
vn -0.7564 -0.0516 -0.6521
vn 0.9939 -0.0498 -0.0981
vn -0.5730 -0.8053 0.1519
vn 0.8750 -0.4807 -0.0573
vn -0.0825 -0.9912 0.1035
vn -0.5768 -0.4350 -0.6914
vn 0.9690 -0.0588 -0.2399
vn 0.3588 -0.9313 -0.0623
vn -0.1322 -0.8614 0.4904
vn -0.1788 0.8230 -0.5392
vn -0.2202 0.9136 -0.3418
vn 0.8547 0.1629 -0.4929
vn -0.1734 -0.3820 -0.9077
vn 0.2197 0.1330 -0.9665
vn 0.8865 0.1357 0.4425
vn 0.2448 0.4083 0.8794
vn 0.6545 -0.4230 0.6266
vn 0.2952 -0.8255 0.4810
vn -0.1109 -0.7406 0.6627
vn -0.7564 -0.0516 0.6521
vn 0.9939 -0.0498 0.0981
vn -0.5730 -0.8053 -0.1519
vn 0.8750 -0.4807 0.0573
vn -0.0825 -0.9912 -0.1035
vn -0.5768 -0.4350 0.6914
vn 0.9690 -0.0588 0.2399
vn 0.3588 -0.9313 0.0623
vn -0.1322 -0.8614 -0.4904
vn -0.1788 0.8230 0.5392
vn -0.2202 0.9136 0.3418
vn 0.8547 0.1629 0.4929
vn -0.1734 -0.3820 0.9077
vn 0.2197 0.1330 0.9665
vn 0.7341 -0.6646 -0.1393
vn 0.8613 -0.5026 0.0742
vn 0.5168 -0.6328 -0.5766
vn -0.3194 -0.9459 -0.0565
vn 0.0499 -0.9902 -0.1302
vn 0.7215 -0.4287 -0.5438
vn -0.9256 -0.3335 -0.1790
vn 0.2993 -0.9350 -0.1901
vn -0.5452 -0.8373 -0.0398
vn 0.0796 -0.9748 -0.2082
vn 0.7341 -0.6646 0.1393
vn 0.8613 -0.5026 -0.0742
vn 0.5168 -0.6328 0.5766
vn -0.3194 -0.9459 0.0565
vn 0.0499 -0.9902 0.1302
vn 0.7215 -0.4287 0.5438
vn -0.9256 -0.3335 0.1790
vn 0.2993 -0.9350 0.1901
vn -0.5452 -0.8373 0.0398
vn 0.0796 -0.9748 0.2082
vn -0.2511 0.2357 -0.9388
vn -0.6978 0.1306 -0.7043
vn -0.6313 0.6050 -0.4852
vn -0.2378 0.4433 -0.8643
vn -0.2484 0.4426 -0.8616
vn 0.0889 0.7496 -0.6559
vn 0.7731 0.5092 -0.3781
vn -0.1122 0.3998 -0.9097
vn -0.2508 0.2915 -0.9231
vn -0.7165 0.0350 -0.6967
vn -0.7487 0.2867 -0.5977
vn -0.5695 0.4037 -0.7161
vn -0.1860 0.6977 -0.6918
vn -0.3022 0.3909 -0.8694
vn -0.4376 0.1569 -0.8854
vn 0.1927 0.4348 -0.8797
vn 0.3096 0.6730 -0.6718
vn -0.7284 0.0617 -0.6823
vn 0.5880 0.7323 -0.3436
vn 0.1857 0.7942 -0.5786
vn 0.8022 0.3977 -0.4452
vn 0.3547 0.8890 -0.2895
vn -0.9527 -0.2118 -0.2181
vn -0.9154 -0.3378 -0.2190
vn -0.6168 -0.7811 -0.0974
vn -0.8843 0.3012 -0.3568
vn -0.9672 0.0706 -0.2440
vn -0.6094 0.2390 -0.7560
vn -0.8845 0.1603 -0.4382
vn -0.1731 0.6808 -0.7117
vn -0.7717 0.1863 -0.6081
vn -0.5381 0.7713 -0.3398
vn -0.5852 0.0992 -0.8048
vn -0.0975 0.3376 -0.9362
vn -0.6362 0.1336 -0.7598
vn -0.5453 0.3764 -0.7490
vn -0.5278 0.4946 -0.6905
vn -0.6404 0.4514 -0.6214
vn -0.5884 0.6220 -0.5167
vn -0.7705 0.6036 -0.2051
vn -0.7928 0.3093 -0.5252
vn -0.7166 0.2609 -0.6469
vn 0.1588 0.4825 -0.8614
vn -0.2511 0.2357 0.9388
vn -0.6978 0.1306 0.7043
vn -0.6313 0.6050 0.4852
vn -0.2378 0.4433 0.8643
vn -0.2484 0.4426 0.8616
vn 0.0889 0.7496 0.6559
vn 0.7731 0.5092 0.3781
vn -0.1122 0.3998 0.9097
vn -0.2508 0.2915 0.9231
vn -0.7165 0.0350 0.6967
vn -0.7487 0.2867 0.5977
vn -0.5695 0.4037 0.7161
vn -0.1860 0.6977 0.6918
vn -0.3022 0.3909 0.8694
vn -0.4376 0.1569 0.8854
vn 0.1927 0.4348 0.8797
vn 0.3096 0.6730 0.6718
vn -0.7284 0.0617 0.6823
vn 0.5880 0.7323 0.3436
vn 0.1857 0.7942 0.5786
vn 0.8022 0.3977 0.4452
vn 0.3547 0.8890 0.2895
vn -0.9527 -0.2118 0.2181
vn -0.9154 -0.3378 0.2190
vn -0.6168 -0.7811 0.0974
vn -0.8843 0.3012 0.3568
vn -0.9672 0.0706 0.2440
vn -0.6094 0.2390 0.7560
vn -0.8845 0.1603 0.4382
vn -0.1731 0.6808 0.7117
vn -0.7717 0.1863 0.6081
vn -0.5381 0.7713 0.3398
vn -0.5852 0.0992 0.8048
vn -0.0975 0.3376 0.9362
vn -0.6362 0.1336 0.7598
vn -0.5453 0.3764 0.7490
vn -0.5278 0.4946 0.6905
vn -0.6404 0.4514 0.6214
vn -0.5884 0.6220 0.5167
vn -0.7705 0.6036 0.2051
vn -0.7928 0.3093 0.5252
vn -0.7166 0.2609 0.6469
vn 0.1588 0.4825 0.8614
usemtl black
s off
f 27//1 99//1 124//1
f 96//2 94//2 17//2
f 80//3 84//3 83//3 85//3 82//3 81//3
f 140//4 124//4 99//4
f 232//5 117//5 230//5
f 215//6 216//6 217//6 220//6 218//6 219//6
usemtl pale_red
f 23//7 24//7 21//7
f 24//8 23//8 133//8 134//8
f 133//9 23//9 22//9 132//9
f 22//10 23//10 21//10
f 24//11 25//11 21//11
f 25//12 24//12 134//12 135//12
f 30//13 31//13 151//13 29//13
f 32//14 33//14 151//14 31//14
f 34//15 35//15 139//15 33//15
f 151//16 33//16 139//16
f 28//17 29//17 151//17 124//17
f 121//18 139//18 36//18
f 28//19 124//19 205//19
f 29//20 28//20 205//20 206//20
f 30//21 29//21 206//21 207//21
f 31//22 30//22 207//22 208//22
f 32//23 31//23 208//23 209//23
f 33//24 32//24 209//24 210//24
f 34//25 33//25 210//25 211//25
f 35//26 34//26 211//26 212//26
f 36//27 35//27 212//27 213//27
f 121//28 36//28 213//28
f 36//29 139//29 35//29
f 129//30 127//30 130//30
f 130//31 134//31 133//31 129//31
f 133//32 132//32 128//32 129//32
f 128//33 127//33 129//33
f 130//34 127//34 131//34
f 131//35 135//35 134//35 130//35
f 144//36 143//36 151//36 145//36
f 146//37 145//37 151//37 147//37
f 148//38 147//38 139//38 149//38
f 151//39 139//39 147//39
f 142//40 124//40 151//40 143//40
f 121//41 150//41 139//41
f 142//42 205//42 124//42
f 143//43 206//43 205//43 142//43
f 144//44 207//44 206//44 143//44
f 145//45 208//45 207//45 144//45
f 146//46 209//46 208//46 145//46
f 147//47 210//47 209//47 146//47
f 148//48 211//48 210//48 147//48
f 149//49 212//49 211//49 148//49
f 150//50 213//50 212//50 149//50
f 121//51 213//51 150//51
f 150//52 149//52 139//52
usemtl gold
f 137//53 138//53 26//53
f 137//54 26//54 141//54
f 138//55 27//55 26//55
f 26//56 27//56 25//56
f 135//57 141//57 26//57 25//57
f 124//58 27//58 138//58
f 137//59 136//59 138//59
f 137//60 141//60 136//60
f 138//61 136//61 140//61
f 136//62 131//62 140//62
f 135//63 131//63 136//63 141//63
f 124//64 138//64 140//64
usemtl buttermilk
f 46//65 42//65 47//65 51//65
f 43//66 48//66 49//66 44//66
f 42//67 45//67 50//67 47//67
f 47//68 50//68 74//68
f 46//69 51//69 48//69 43//69
f 51//70 56//70 53//70 48//70
f 51//71 47//71 52//71 56//71
f 53//72 70//72 48//72
f 52//73 47//73 74//73
f 54//74 68//74 49//74
f 70//75 71//75 72//75 54//75
f 52//76 74//76 75//76 57//76 64//76
f 68//77 69//77 73//77 55//77
f 53//78 63//78 65//78 64//78
f 56//79 52//79 64//79 65//79 61//79
f 54//80 59//80 69//80 68//80
f 54//81 72//81 58//81 53//81
f 74//82 55//82 60//82 75//82
f 50//83 68//83 55//83
f 49//84 68//84 50//84
f 50//85 55//85 74//85
f 75//86 60//86 57//86
f 69//87 59//87 73//87
f 49//88 70//88 54//88
f 48//89 70//89 49//89
f 72//90 71//90 58//90
f 44//91 49//91 50//91 45//91
f 61//92 65//92 63//92
f 55//93 64//93 57//93 60//93
f 54//94 55//94 73//94 59//94
f 56//95 61//95 63//95 53//95
f 53//96 58//96 71//96 70//96
f 64//97 55//97 54//97 53//97
f 172//98 177//98 173//98 168//98
f 169//99 170//99 175//99 174//99
f 168//100 173//100 176//100 171//100
f 173//101 200//101 176//101
f 172//102 169//102 174//102 177//102
f 177//103 174//103 179//103 182//103
f 177//104 182//104 178//104 173//104
f 179//105 174//105 196//105
f 178//106 200//106 173//106
f 180//107 175//107 194//107
f 196//108 180//108 198//108 197//108
f 178//109 190//109 183//109 201//109 200//109
f 194//110 181//110 199//110 195//110
f 179//111 190//111 191//111 189//111
f 182//112 187//112 191//112 190//112 178//112
f 180//113 194//113 195//113 185//113
f 180//114 179//114 184//114 198//114
f 200//115 201//115 186//115 181//115
f 176//116 181//116 194//116
f 175//117 176//117 194//117
f 176//118 200//118 181//118
f 201//119 183//119 186//119
f 195//120 199//120 185//120
f 175//121 180//121 196//121
f 174//122 175//122 196//122
f 198//123 184//123 197//123
f 170//124 171//124 176//124 175//124
f 187//125 189//125 191//125
f 181//126 186//126 183//126 190//126
f 180//127 185//127 199//127 181//127
f 182//128 179//128 189//128 187//128
f 179//129 196//129 197//129 184//129
f 190//130 179//130 180//130 181//130
usemtl pale_grey
f 7//131 13//131 41//131
f 95//132 13//132 96//132
f 8//133 9//133 91//133 87//133
f 46//134 43//134 89//134 91//134 9//134
f 43//135 44//135 93//135 89//135
f 11//136 15//136 40//136
f 157//137 8//137 7//137 159//137
f 88//138 93//138 44//138 45//138 160//138
f 157//139 161//139 9//139 8//139
f 160//140 163//140 92//140 88//140
f 40//141 15//141 10//141
f 41//142 166//142 159//142 7//142
f 161//143 42//143 46//143 9//143
f 161//144 160//144 45//144 42//144
f 13//145 86//145 6//145
f 6//146 86//146 222//146 156//146
f 7//147 8//147 87//147 13//147
f 15//148 18//148 16//148 10//148
f 17//149 16//149 18//149 95//149 96//149
f 107//150 167//150 113//150
f 231//151 232//151 113//151
f 108//152 223//152 227//152 109//152
f 172//153 109//153 227//153 225//153 169//153
f 169//154 225//154 229//154 170//154
f 111//155 165//155 115//155
f 157//156 159//156 107//156 108//156
f 224//157 160//157 171//157 170//157 229//157
f 157//158 108//158 109//158 161//158
f 160//159 224//159 228//159 163//159
f 165//160 110//160 115//160
f 167//161 107//161 159//161 166//161
f 161//162 109//162 172//162 168//162
f 161//163 168//163 171//163 160//163
f 113//164 106//164 221//164
f 106//165 156//165 222//165 221//165
f 107//166 113//166 223//166 108//166
f 115//167 110//167 116//167 119//167
f 117//168 232//168 231//168 119//168 116//168
usemtl mid_grey
f 13//2 87//2 94//2 96//2
f 41//169 6//169 166//169
f 156//170 166//170 6//170
f 13//171 6//171 41//171
f 88//172 92//172 10//172
f 10//173 93//173 88//173
f 87//174 91//174 16//174 17//174 94//174
f 40//175 90//175 11//175
f 89//176 16//176 91//176
f 10//177 92//177 90//177 40//177
f 89//178 93//178 10//178 16//178
f 113//5 232//5 230//5 223//5
f 167//179 166//179 106//179
f 156//180 106//180 166//180
f 113//181 167//181 106//181
f 224//182 110//182 228//182
f 110//183 224//183 229//183
f 223//184 230//184 117//184 116//184 227//184
f 165//185 111//185 226//185
f 225//186 227//186 116//186
f 110//187 165//187 226//187 228//187
f 225//188 116//188 110//188 229//188
usemtl white
f 3//189 1//189 2//189 5//189
f 21//190 25//190 79//190 20//190
f 124//191 67//191 78//191 27//191
f 19//192 1//192 20//192
f 37//193 1//193 19//193
f 100//194 37//194 19//194 121//194
f 158//195 118//195 2//195 38//195
f 2//196 1//196 37//196 38//196
f 5//197 39//197 3//197
f 103//198 3//198 39//198
f 39//199 14//199 11//199
f 4//200 14//200 39//200
f 12//201 97//201 39//201
f 12//202 39//202 5//202
f 14//203 4//203 18//203 15//203
f 97//204 12//204 13//204 95//204
f 12//205 5//205 86//205 13//205
f 14//206 15//206 11//206
f 38//207 100//207 158//207
f 100//208 38//208 37//208
f 5//209 2//209 118//209 155//209
f 86//210 5//210 155//210 222//210
f 11//211 162//211 103//211
f 11//212 90//212 164//212 162//212
f 92//213 163//213 164//213 90//213
f 132//214 22//214 3//214 120//214
f 21//215 3//215 22//215
f 21//216 20//216 1//216 3//216
f 120//217 3//217 103//217
f 66//218 121//218 19//218 62//218
f 25//219 76//219 79//219
f 67//220 124//220 151//220 139//220 121//220 66//220
f 76//221 25//221 27//221 78//221
f 20//222 77//222 62//222 19//222
f 76//223 77//223 20//223 79//223
f 67//224 66//224 81//224 82//224
f 78//225 67//225 82//225 85//225
f 76//226 78//226 85//226 83//226
f 77//227 76//227 83//227 84//227
f 62//228 77//228 84//228 80//228
f 66//229 62//229 80//229 81//229
f 103//230 39//230 11//230
f 4//231 97//231 95//231 18//231
f 97//201 4//201 39//201
f 102//232 105//232 101//232 98//232
f 127//233 126//233 214//233 131//233
f 124//234 140//234 204//234 193//234
f 125//235 126//235 98//235
f 152//236 125//236 98//236
f 100//237 121//237 125//237 152//237
f 158//238 153//238 101//238 118//238
f 101//239 153//239 152//239 98//239
f 105//240 102//240 154//240
f 103//241 154//241 102//241
f 154//242 111//242 114//242
f 104//243 154//243 114//243
f 112//244 154//244 233//244
f 112//245 105//245 154//245
f 114//246 115//246 119//246 104//246
f 233//247 231//247 113//247 112//247
f 112//248 113//248 221//248 105//248
f 114//249 111//249 115//249
f 153//250 158//250 100//250
f 100//251 152//251 153//251
f 105//252 155//252 118//252 101//252
f 221//253 222//253 155//253 105//253
f 111//254 103//254 162//254
f 111//255 162//255 164//255 226//255
f 228//256 226//256 164//256 163//256
f 132//257 120//257 102//257 128//257
f 127//258 128//258 102//258
f 127//259 102//259 98//259 126//259
f 120//260 103//260 102//260
f 192//261 188//261 125//261 121//261
f 131//262 214//262 202//262
f 193//263 192//263 121//263 139//263 151//263 124//263
f 202//264 204//264 140//264 131//264
f 126//265 125//265 188//265 203//265
f 202//266 214//266 126//266 203//266
f 193//267 217//267 216//267 192//267
f 204//268 220//268 217//268 193//268
f 202//269 218//269 220//269 204//269
f 203//270 219//270 218//270 202//270
f 188//271 215//271 219//271 203//271
f 192//272 216//272 215//272 188//272
f 103//273 111//273 154//273
f 104//274 119//274 231//274 233//274
f 233//244 154//244 104//244
l 99 122
l 122 123
